{"title":"russian fatties margo silverdust {iarg}","uid":6492384,"size":445266770,"categoryP":"porn","categoryS":"movie_clips","magnet":"?xt=urn:btih:3cc0edd449b1322602dcf5b6d668684dfbb4f921&amp;dn=russian+fatties+margo+silverdust+%7Biarg%7D&amp;tr=udp%3A%2F%2Ftracker.openbittorrent.com%3A80&amp;tr=udp%3A%2F%2Fopen.demonii.com%3A1337&amp;tr=udp%3A%2F%2Ftracker.coppersurfer.tk%3A6969&amp;tr=udp%3A%2F%2Fexodus.desync.com%3A6969","seeders":0,"leechers":1,"uploader":"dodgerblue","files":4,"time":1308934434,"description":"russian fatties margo silverdust {iarg}\nFormat                           : MPEG-PS\nFile size                        : 424 MiB\nDuration                         : 21mn 12s\nOverall bit rate                 : 2 793 Kbps\n\nVideo\nID                               : 224 (0xE0)\nFormat                           : MPEG Video\nFormat version                   : Version 1\nFormat settings, BVOP            : Yes\nFormat settings, Matrix          : Default\nDuration                         : 21mn 12s\nBit rate mode                    : Constant\nBit rate                         : 2 600 Kbps\nWidth                            : 720 pixels\nHeight                           : 576 pixels\nDisplay aspect ratio             : 5:4\nFrame rate                       : 25.000 fps\nStandard                         : PAL\nColor space                      : YUV\nBit depth                        : 8 bits\nScan type                        : Progressive\nCompression mode                 : Lossy\nBits/(Pixel*Frame)               : 0.251\nStream size                      : 396 MiB (93%)\n\nAudio\nID                               : 192 (0xC0)\nFormat                           : MPEG Audio\nFormat version                   : Version 1\nFormat profile                   : Layer 2\nDuration                         : 21mn 12s\nBit rate mode                    : Constant\nBit rate                         : 128 Kbps\nChannel(s)                       : 2 channels\nSampling rate                    : 44.1 KHz\nCompression mode                 : Lossy\nStream size                      : 19.4 MiB (5%)\n[img]http://leetleech.org/images/73168342652259907640.jpg[/img]\n    \t[img]http://leetleech.org/images/73430458595722763119.jpg[/img]\n    \t[img]http://leetleech.org/images/62961004940592510088.jpg[/img]\n    \t[img]http://leetleech.org/images/64530071251327786828.jpg[/img]\n    \t[img]http://leetleech.org/images/09772026438628186726.jpg[/img]\n    \t[img]http://leetleech.org/images/59867512690536659208.jpg[/img]","torrent":{"xt":"urn:btih:3cc0edd449b1322602dcf5b6d668684dfbb4f921","amp;dn":"russian+fatties+margo+silverdust+%7Biarg%7D","amp;tr":["udp%3A%2F%2Ftracker.openbittorrent.com%3A80","udp%3A%2F%2Fopen.demonii.com%3A1337","udp%3A%2F%2Ftracker.coppersurfer.tk%3A6969","udp%3A%2F%2Fexodus.desync.com%3A6969"],"infoHash":"3cc0edd449b1322602dcf5b6d668684dfbb4f921","infoHashBuffer":{"type":"Buffer","data":[60,192,237,212,73,177,50,38,2,220,245,182,214,104,104,77,251,180,249,33]},"announce":[],"urlList":[]}}